<svg width="131" height="49" viewBox="0 0 131 49" fill="none" xmlns="http://www.w3.org/2000/svg">
<g clip-path="url(#clip0_1_45)">
<path d="M43.0967 21.0264V25.3069H49.4028V42.3992H53.8138V25.3069H60.12V21.0264H43.0967ZM79.2815 22.2678C77.9992 21.3782 76.0833 20.9067 73.7184 20.9067C72.652 20.9067 67.4014 21.021 67.1801 21.0264L66.3469 21.0428V42.3992H70.7861V34.6528H73.6219C75.3077 34.6909 76.9773 34.3174 78.4874 33.565C80.5594 32.2692 81.7972 29.9749 81.7484 27.526C81.7484 25.1359 80.9196 23.3665 79.2815 22.2667V22.2678ZM70.7752 25.3058C71.6431 25.3058 72.9525 25.2437 73.4917 25.2437C76.5759 25.2437 77.2062 26.1943 77.2062 27.6175C77.2159 28.4494 76.8373 29.2399 76.1853 29.7517C75.2751 30.1927 74.2673 30.3887 73.2584 30.3212H70.7861L70.7752 25.3069V25.3058ZM91.1724 25.7566C88.9897 25.7392 86.8981 26.6386 85.4054 28.2382C83.8562 29.8312 83.0068 31.9818 83.0469 34.2085C83.0165 36.4462 83.866 38.6055 85.4119 40.2192C86.9057 41.8122 88.9918 42.7095 91.1724 42.6953C92.6911 42.7138 94.1795 42.2783 95.4488 41.4431V42.1313H99.8315V26.1203L95.5161 27.0251C94.2273 26.1758 92.7139 25.7337 91.1724 25.7566ZM94.1329 31.0889C94.9226 31.9317 95.3522 33.0521 95.3295 34.2085C95.3544 35.3736 94.9259 36.5039 94.1329 37.3554C93.4169 38.1416 92.4037 38.5891 91.3427 38.5891C90.2817 38.5891 89.2696 38.1427 88.5525 37.3565C87.7605 36.5017 87.332 35.3704 87.3624 34.2031C87.3364 33.0467 87.7638 31.9273 88.5525 31.0834C89.2598 30.2831 90.2741 29.8258 91.3405 29.8258C92.4058 29.8258 93.4201 30.2831 94.1275 31.0834L94.1329 31.0889ZM110.861 32.4957L109.16 31.8402C107.629 31.2718 107.629 31.0998 107.629 30.8678C107.629 30.503 107.629 29.8312 109.58 29.8312C110.98 29.8345 112.36 30.172 113.606 30.8166L114.82 31.385V26.7921L114.252 26.582C112.731 26.0048 111.12 25.7054 109.494 25.7C105.57 25.7 103.223 27.5663 103.223 30.6914C103.223 33.8165 105.49 34.937 107.237 35.574L109.064 36.2295C110.832 36.8611 111.003 37.0375 111.003 37.3674C111.003 37.8345 111.003 38.6142 108.786 38.6142C107.124 38.6098 105.497 38.1351 104.091 37.2476L102.808 36.5072V41.2264L103.268 41.466C104.975 42.3099 106.855 42.7389 108.758 42.7182C112.926 42.7182 115.414 40.7593 115.414 37.4872C115.443 34.4873 113.367 33.4289 110.861 32.4957ZM125.621 32.4957L123.92 31.8402C122.39 31.2718 122.39 31.0998 122.39 30.8678C122.39 30.503 122.39 29.8312 124.34 29.8312C125.741 29.8345 127.121 30.172 128.366 30.8166L129.58 31.385V26.7921L129.013 26.582C127.493 26.0048 125.881 25.7054 124.256 25.7C120.331 25.7 117.983 27.5663 117.983 30.6914C117.983 33.8165 120.251 34.937 121.998 35.574L123.824 36.2295C125.593 36.8611 125.764 37.0375 125.764 37.3674C125.764 37.8345 125.764 38.6142 123.546 38.6142C121.885 38.6098 120.258 38.1351 118.851 37.2476L117.57 36.5072V41.2264L118.029 41.466C119.735 42.3099 121.616 42.7389 123.518 42.7182C127.686 42.7182 130.176 40.7593 130.176 37.4872C130.204 34.4873 128.157 33.4289 125.621 32.4957Z" fill="white"/>
<path d="M59.8303 42.4438C61.1046 42.4438 62.1377 41.4069 62.1377 40.1277C62.1377 38.8486 61.1046 37.8117 59.8303 37.8117C58.5559 37.8117 57.5228 38.8486 57.5228 40.1277C57.5228 41.4069 58.5559 42.4438 59.8303 42.4438Z" fill="url(#paint0_linear_1_45)"/>
<path d="M15.6362 47.6313C20.1513 47.6313 24.2965 44.8916 24.879 41.5248L25.8163 33.1686C24.0546 34.0594 23.4861 36.0292 19.7705 34.4982C19.7705 34.4982 16.0973 32.487 15.0732 32.1745C9.99073 30.6217 5.17947 34.7856 5.13391 34.8488L6.46935 41.4279C7.05624 44.8296 11.1721 47.6313 15.6362 47.6313Z" fill="url(#paint1_linear_1_45)"/>
<path d="M28.0413 19.2668C27.6453 13.8202 23.8462 9.22725 18.5847 7.83565L18.8733 5.15371L21.1656 3.97989L21.2578 3.93307L22.885 3.11096C23.2246 2.94 23.4817 2.64165 23.601 2.28014C23.7193 1.91971 23.69 1.52662 23.5196 1.18689L23.32 0.789447C23.2983 0.745891 23.2734 0.702336 23.2474 0.660958C22.8536 0.0424688 22.0562 -0.177487 21.4031 0.153536L20.9106 0.40398L20.8759 0.420313L16.2328 2.7342C15.9616 2.85834 15.7772 3.11531 15.7446 3.41258L15.315 7.40662C8.60747 7.4284 3.14314 12.6551 2.66581 19.2668C1.32495 19.5281 0.356187 20.7041 0.355103 22.0761V23.4209C0.357272 24.9497 1.5571 26.2063 3.07805 26.2727L4.96024 40.8856C5.33776 45.4589 8.934 48.9096 13.3222 48.9096H17.6311C22.0193 48.9096 25.6145 45.4611 25.9877 40.9368L27.8764 26.252C29.291 26.0658 30.3498 24.8582 30.352 23.4264V22.0805C30.353 20.7085 29.3843 19.527 28.0413 19.2668ZM15.3519 9.55391C20.8629 9.55391 25.3899 13.806 25.8911 19.2124H23.8006C23.3114 14.957 19.7227 11.6489 15.3552 11.6489C10.9887 11.6489 7.39245 14.957 6.90427 19.2124H4.81487C5.3139 13.806 9.83876 9.55391 15.3519 9.55391ZM21.7622 19.2124H19.4493C19.0046 17.3014 17.3068 15.95 15.353 15.95C13.3981 15.95 11.7014 17.3014 11.2566 19.2124H8.94377C9.42435 16.0317 12.1484 13.6808 15.353 13.6808C18.5576 13.6808 21.2816 16.0317 21.7622 19.2124ZM6.29351 34.0866L5.29003 26.2858H13.2419L12.7288 31.1967C9.70532 31.0987 7.56168 32.7102 6.29568 34.0855L6.29351 34.0866ZM23.806 40.7016C23.524 44.124 20.8683 46.7046 17.6301 46.7046H13.3211C10.0818 46.7046 7.42608 44.124 7.13751 40.6504L6.61462 36.5725C7.09303 35.7754 9.03815 32.965 12.5378 32.9988L11.8913 39.1771C11.8067 39.9851 12.3729 40.7136 13.1573 40.8007L13.5977 40.8497C13.6465 40.8551 13.6954 40.8584 13.7442 40.8584C14.4862 40.8518 15.1024 40.2834 15.1707 39.5419L15.7739 33.773C15.8878 33.8242 15.9996 33.871 16.1145 33.9287C20.1501 35.9105 22.9512 35.3138 24.6099 34.4448L23.8071 40.7016H23.806ZM24.9213 32.0308C24.3788 32.597 21.8631 34.7584 16.9 32.3204C16.5832 32.1647 16.2751 32.0329 15.9692 31.9121L16.5593 26.2847H25.6611L24.9213 32.0308ZM28.1834 23.4187C28.1834 23.6017 28.1118 23.7781 27.9838 23.9066C27.8557 24.0372 27.6811 24.1102 27.4988 24.1102H3.20823C2.82853 24.1102 2.52261 23.802 2.52261 23.4231V22.0772C2.52261 21.6972 2.82962 21.3901 3.20823 21.389H27.4988C27.8785 21.389 28.1845 21.6972 28.1855 22.0772L28.1834 23.4187Z" fill="white"/>
<path d="M17.8623 43.0166C17.2027 43.1603 16.7829 43.8125 16.9261 44.4757C17.0682 45.1377 17.718 45.558 18.3787 45.4154C19.0382 45.2738 19.4581 44.6205 19.316 43.9584C19.2476 43.6405 19.0556 43.3617 18.7844 43.1853C18.511 43.0078 18.1791 42.948 17.8623 43.0166ZM18.7421 40.2824C18.5143 40.3324 18.3407 40.5132 18.2984 40.743C18.2572 40.9716 18.3581 41.2036 18.5533 41.3299C18.7486 41.4562 19.0003 41.4518 19.1901 41.319C19.3811 41.1861 19.4733 40.9509 19.4244 40.7234C19.3572 40.4119 19.0513 40.2148 18.741 40.2824H18.7421ZM10.8097 43.7962C10.5798 43.8463 10.4333 44.075 10.4832 44.308C10.5331 44.5388 10.7609 44.6858 10.992 44.6346C11.222 44.5846 11.3684 44.3559 11.3185 44.125C11.2947 44.014 11.2274 43.916 11.1319 43.855C11.0365 43.7929 10.9204 43.7722 10.8097 43.7962ZM15.5516 41.0511C15.2305 41.1197 14.9842 41.3778 14.9256 41.7012C14.867 42.0246 15.0092 42.3523 15.2847 42.5309C15.5613 42.7084 15.9161 42.7019 16.1851 42.5146C16.4563 42.3262 16.5865 41.9941 16.516 41.6729C16.4205 41.233 15.9888 40.9542 15.5505 41.05L15.5516 41.0511ZM10.7306 41.0511C10.2923 41.1458 10.0146 41.5792 10.11 42.0191C10.2055 42.458 10.6383 42.7367 11.0755 42.6409C11.5127 42.5451 11.7915 42.1117 11.695 41.6718C11.6494 41.4616 11.5225 41.2776 11.3413 41.16C11.1602 41.0435 10.9399 41.0043 10.7306 41.0511ZM18.2973 38.9114C18.7638 38.8102 19.1218 38.4367 19.2075 37.9652C19.2921 37.4948 19.086 37.0179 18.6846 36.7598C18.2832 36.5006 17.7668 36.5094 17.3752 36.7827C16.9836 37.056 16.7937 37.5394 16.8957 38.0066C17.0335 38.6447 17.6616 39.0497 18.2973 38.9114ZM12.9545 43.6024C12.5748 43.8419 12.4609 44.3428 12.6974 44.7239C12.9349 45.105 13.434 45.2205 13.8148 44.9842C14.1944 44.7468 14.3105 44.2459 14.0751 43.8637C13.9612 43.6797 13.779 43.5479 13.5685 43.5C13.3591 43.451 13.1378 43.488 12.9545 43.6024ZM21.1103 39.4461C21.3479 39.8272 21.848 39.9426 22.2277 39.7042C22.6074 39.4646 22.7224 38.9637 22.4848 38.5826C22.2472 38.2015 21.7471 38.085 21.3674 38.3234C21.1841 38.4378 21.055 38.6207 21.0061 38.8309C20.9584 39.041 20.9953 39.2632 21.1103 39.4461ZM21.0029 41.7654C20.6232 42.0039 20.5071 42.5059 20.7447 42.887C20.9834 43.2681 21.4824 43.3846 21.8621 43.1461C22.2418 42.9077 22.3578 42.4057 22.1203 42.0246C22.0064 41.8416 21.8252 41.711 21.6147 41.662C21.4054 41.6141 21.1851 41.6511 21.0029 41.7654ZM10.2738 38.3975C9.93429 37.853 9.22046 37.6897 8.67913 38.0294C8.13671 38.3703 7.9729 39.0857 8.31137 39.6301C8.65092 40.1746 9.36366 40.339 9.90608 40.0003C10.1664 39.8359 10.3519 39.5757 10.4214 39.2751C10.4897 38.9746 10.4366 38.6588 10.2738 38.3975Z" fill="white"/>
</g>
<defs>
<linearGradient id="paint0_linear_1_45" x1="57.5285" y1="40.1277" x2="62.1377" y2="40.1277" gradientUnits="userSpaceOnUse">
<stop stop-color="#59C4C9"/>
<stop offset="0.37" stop-color="#41B1BE"/>
<stop offset="1" stop-color="#0F8BA8"/>
</linearGradient>
<linearGradient id="paint1_linear_1_45" x1="5.13391" y1="39.7304" x2="25.8157" y2="39.7304" gradientUnits="userSpaceOnUse">
<stop stop-color="#59C4C9"/>
<stop offset="0.37" stop-color="#41B1BE"/>
<stop offset="1" stop-color="#0F8BA8"/>
</linearGradient>
<clipPath id="clip0_1_45">
<rect width="130.181" height="49" fill="white" transform="translate(0.354126)"/>
</clipPath>
</defs>
</svg>
